<mxfile host="app.diagrams.net" modified="2024-01-18T00:20:49.356Z" agent="Mozilla/5.0 (Windows NT 10.0; Win64; x64) AppleWebKit/537.36 (KHTML, like Gecko) Chrome/120.0.0.0 Safari/537.36" etag="CZlJKhxJzbRkCMhSKbRL" version="22.1.21" type="github">
  <diagram name="Page-1" id="wjw6rsOuPl66bxY1cBmi">
    <mxGraphModel dx="1071" dy="2073" grid="1" gridSize="10" guides="1" tooltips="1" connect="1" arrows="1" fold="1" page="1" pageScale="1" pageWidth="850" pageHeight="1100" math="0" shadow="0">
      <root>
        <mxCell id="0" />
        <mxCell id="1" parent="0" />
        <mxCell id="xnHxB84TmZS97SEpoOaB-28" value="" style="whiteSpace=wrap;html=1;aspect=fixed;fillColor=#97D077;strokeColor=#97D077;gradientColor=#97d077;" vertex="1" parent="1">
          <mxGeometry y="-550" width="850" height="850" as="geometry" />
        </mxCell>
        <mxCell id="xnHxB84TmZS97SEpoOaB-29" value="" style="rounded=0;whiteSpace=wrap;html=1;fillColor=#FFA500;strokeColor=#FFA500;gradientColor=#ffa500;" vertex="1" parent="1">
          <mxGeometry y="-220" width="150" height="520" as="geometry" />
        </mxCell>
        <mxCell id="xnHxB84TmZS97SEpoOaB-20" value="" style="verticalLabelPosition=bottom;verticalAlign=top;html=1;shape=mxgraph.basic.polygon;polyCoords=[[0.49,0],[0.51,0],[0.77,0.35],[1,1],[0.75,1],[0.25,1],[0,1],[0.23,0.35]];polyline=0;fillColor=#CCE5FF;strokeColor=#CCE5FF;" vertex="1" parent="1">
          <mxGeometry x="140" y="-10" width="570" height="310" as="geometry" />
        </mxCell>
        <mxCell id="xnHxB84TmZS97SEpoOaB-21" value="" style="verticalLabelPosition=bottom;verticalAlign=top;html=1;shape=mxgraph.basic.polygon;polyCoords=[[0.16,0.06],[0.39,0.15],[0.99,0.4],[0.64,0.62],[0.33,1],[0.33,1],[0.31,0.63],[0.24,0.19]];polyline=0;fillColor=#FA6800;fontColor=#000000;strokeColor=#FA6800;" vertex="1" parent="1">
          <mxGeometry y="-220" width="425" height="520" as="geometry" />
        </mxCell>
        <mxCell id="xnHxB84TmZS97SEpoOaB-31" value="" style="rounded=0;whiteSpace=wrap;html=1;fillColor=#e1d5e7;strokeColor=#E1D5E7;" vertex="1" parent="1">
          <mxGeometry x="710" y="-220" width="140" height="520" as="geometry" />
        </mxCell>
        <mxCell id="xnHxB84TmZS97SEpoOaB-30" value="" style="verticalLabelPosition=bottom;verticalAlign=top;html=1;shape=mxgraph.basic.polygon;polyCoords=[[0.16,0.06],[0.39,0.15],[0.99,0.4],[0.64,0.62],[0.33,1],[0.33,1],[0.31,0.63],[0.24,0.19]];polyline=0;fillColor=#d0cee2;strokeColor=#D0CEE2;flipH=1;" vertex="1" parent="1">
          <mxGeometry x="425" y="-220" width="425" height="520" as="geometry" />
        </mxCell>
        <mxCell id="xnHxB84TmZS97SEpoOaB-24" value="" style="verticalLabelPosition=bottom;verticalAlign=top;html=1;shape=mxgraph.basic.polygon;polyCoords=[[0.25,0],[0.75,0],[1,0],[0.82,0.38],[0.51,1],[0.49,1],[0.16,0.33],[0,0]];polyline=0;fillColor=#60A917;strokeColor=#60A917;fontColor=#ffffff;" vertex="1" parent="1">
          <mxGeometry y="-220" width="850" height="210" as="geometry" />
        </mxCell>
        <mxCell id="xnHxB84TmZS97SEpoOaB-2" value="" style="shape=or;whiteSpace=wrap;html=1;rotation=-90;fillColor=#60A917;strokeColor=#60A917;" vertex="1" parent="1">
          <mxGeometry x="297" y="-770" width="257" height="845" as="geometry" />
        </mxCell>
      </root>
    </mxGraphModel>
  </diagram>
</mxfile>
